<?xml version="1.0" encoding="utf-8"?>
<!-- Generator: Adobe Illustrator 26.0.3, SVG Export Plug-In . SVG Version: 6.00 Build 0)  -->
<svg version="1.0" id="katman_1" xmlns="http://www.w3.org/2000/svg" xmlns:xlink="http://www.w3.org/1999/xlink" x="0px" y="0px"
	 viewBox="0 0 779.1 565.2" style="enable-background:new 0 0 779.1 565.2;" xml:space="preserve">
<style type="text/css">
	.st0{fill:#1D1D1B;}
</style>
<path class="st0" d="M173.9,408.3c-14,0-27.9,0-42,0c-2.3-34.2-4.7-68.3-7-102.5c-0.9,0-1.6,0-2.6,0c-2.1,34.1-4.2,68.2-6.4,102.5
	c-14.3,0-28.5,0-42.8,0c-1-7.6-1.9-15.2-2.9-22.8c-2.1-16.9-4.2-33.8-6.3-50.6c-2.1-16.9-4-34-6.5-50.8c-2.1-14.4-1.3-28.8-1.5-43.3
	c0-0.4,0.1-0.7,0.1-1.2c10.1,0,20.2,0,30.5,0c2.3,33.3,4.7,66.5,7,99.7c0.9,0,1.6,0,2.6,0c1.9-33.3,3.8-66.4,5.7-99.8
	c0.8,0,1.5-0.1,2.1-0.1c12.8,0,25.7,0,38.5,0c1.6,0,2.2,0.4,2.3,2.3c1.3,19.1,2.6,38.1,4,57.2c0.9,12.6,1.7,25.3,2.6,38
	c0.1,0.8,0.2,1.6,0.3,2.5c0.8,0,1.6,0,2.5,0c1.9-33.2,3.8-66.4,5.7-99.7c10.4,0,20.7,0,31.1,0c0,0.8,0.1,1.6,0.1,2.3
	c0,9.4,0.3,18.9-0.1,28.3c-0.3,6.7-1.4,13.3-2.2,20c-2.1,16.9-4.3,33.7-6.4,50.6c-2.2,17.8-4.5,35.5-6.7,53.3
	c-0.5,3.9-1,7.9-1.5,11.8C174.2,406.8,174.1,407.5,173.9,408.3z"/>
<path class="st0" d="M582.2,334.8c0.2,24.7,0.4,49.3,0.6,74.1c-10.2,0-20.2,0-30.4,0c0-56.4,0-112.8,0-169.5c0.7,0,1.3,0,2,0
	c8.6,0,17.2,0,25.8,0c1.6,0,2.2,0.6,2.7,2.2c6.7,23,13.5,45.9,20.2,68.9c0.3,0.9,0.6,1.8,0.8,2.7c0.8,0,1.6,0,2.5,0
	c0-24.5,0-48.9,0-73.5c10.3,0,20.4,0,30.6,0c0,56.4,0,112.8,0,169.4c-0.7,0-1.3,0.1-1.9,0.1c-8.9,0-17.9,0-26.8,0
	c-1.4,0-2-0.5-2.4-1.9c-7-23.6-14.1-47.1-21.2-70.6C584.4,335.4,584.2,334.1,582.2,334.8z"/>
<path class="st0" d="M311.2,408.3c-11.6,0-23,0-34.4,0c0-56.2,0-112.4,0-168.8c0.7,0,1.4-0.1,2.1-0.1c19.9,0,39.9,0,59.8,0
	c11.9,0,22.2,11.1,22.2,23.9c0,14.5-0.1,28.9,0,43.4c0.1,11.1-4.6,19-13.6,24c-0.2,0.1-0.5,0.3-0.7,0.4c-0.1,0-0.1,0.1-0.3,0.3
	c2.1,5.8,4.2,11.8,6.4,17.8c4,11,8,22.1,12,33.1c0.3,0.7,0.6,1.5,0.6,2.3c0,7.8,0,15.6,0,23.7c-0.8,0-1.4,0-2.1,0
	c-8.8,0-17.6-0.1-26.4,0.1c-1.7,0-2.3-0.6-2.8-2.3c-6-19.8-12-39.6-18.1-59.4c-1.1-3.5-1.1-3.5-4.8-2.9
	C311.2,365.3,311.2,386.7,311.2,408.3z M311.3,269.8c0,14.2,0,28.1,0,42.1c3.8,0,7.5,0.1,11.2,0c2.4-0.1,3.9-1.9,3.9-4.4
	c0-11,0-22,0-32.9c0-2.1-2-4.6-4-4.6C318.8,269.8,315.1,269.8,311.3,269.8z"/>
<path class="st0" d="M461,325.2c0-19.7,0-39.4,0-59.1c0-6.9,1.6-13.3,5.7-18.7c2.3-3.1,5.2-5.4,8.6-7c1.3-0.6,2.8-0.9,4.1-0.9
	c14.8-0.1,29.6,0,44.4,0c10.6,0,18.2,6.5,20.6,17.6c0.5,2.3,0.7,4.7,0.7,7c0,39.3,0.1,78.5,0,117.8c0,10.1-3.1,18.7-11,24.6
	c-2.5,1.8-5.1,2.8-8.2,2.8c-15.2-0.1-30.4-0.1-45.7,0c-6.1,0-10.7-2.7-14-8c-3.5-5.5-5.4-11.6-5.4-18.4
	C461.1,363.6,461,344.4,461,325.2z M495.5,324.2c0,16.7,0,33.3,0,50c0,3,1.4,4.6,3.9,4.6c2.2,0,4.5,0,6.8,0c3.5,0,4.7-1.3,4.7-5.1
	c0-32.9,0-65.8,0-98.7c0-0.5,0-1,0-1.5c-0.2-2-1.7-3.6-3.6-3.6c-2.5,0-4.9,0-7.4,0c-3.1,0-4.4,1.4-4.4,4.8
	C495.5,291.1,495.5,307.7,495.5,324.2z"/>
<path class="st0" d="M216.7,408.3c-11,0-21.9,0-33,0c0-0.8-0.1-1.6-0.1-2.3c0-8.3-0.3-16.5,0.1-24.8c0.3-6.2,1.5-12.4,2.4-18.6
	c3-21,6.1-42.1,9.2-63.1c2.9-19.7,5.8-39.5,8.6-59.2c0-0.2,0.1-0.4,0.2-0.7c15.7,0,31.3,0,47.1,0c1.3,9,2.6,17.9,3.8,26.8
	c2.9,20.5,5.8,41.1,8.8,61.6c2.4,16.5,4.7,33.1,7.1,49.6c0,0.2,0.1,0.4,0.1,0.7c0,10,0,19.9,0,30c-10.8,0-21.6,0-32.5,0
	c-0.8-10.6-1.7-21.3-2.6-32.1c-5.5,0-10.9,0-16.6,0C218.4,386.9,217.6,397.5,216.7,408.3z M232.7,340.7c-1.3-18-2.5-35.8-3.8-53.5
	c-1,0-1.8,0-2.6,0c-1.5,17.9-3,35.6-4.4,53.5C225.5,340.7,229,340.7,232.7,340.7z"/>
<path class="st0" d="M454.7,239.6c0,7.1-0.3,14,0.1,20.8c0.3,6.4-1.1,12-3.6,17.8c-13.7,30.8-27.1,61.8-40.7,92.7
	c-0.3,0.7-0.6,1.3-1,2.4c15.2,0,30.1,0,45.1,0c0,11.9,0,23.5,0,35.1c-28.2,0-56.3,0-84.7,0c0-0.7-0.1-1.4-0.1-2.1
	c0-8.8,0-17.6,0-26.3c0-1.3,0.4-2.6,0.9-3.8c14.6-33,29.2-65.9,43.9-98.8c0.3-0.8,0.7-1.6,1.1-2.6c-15.4,0-30.5,0-45.8,0
	c0-11.8,0-23.3,0-35C398.1,239.6,426.3,239.6,454.7,239.6z"/>
<path class="st0" d="M714.8,239.5c0,11.7,0,23.3,0,35c-12,0-24,0-36.1,0c0,10.4,0,20.6,0,31c10.7,0,21.4,0,32.4,0
	c-1.3,11.8-2.5,23.4-3.8,35.2c-9.6,0-19.1,0-28.6,0c0,10.9,0,21.5,0,32.3c12,0,24,0,36.1,0c0,12.1,0,23.9,0,35.9
	c-23.6,0-47.3,0-71.1,0c0-0.8-0.1-1.6-0.1-2.4c0-54.9,0-109.8,0-164.7c0-2,0.5-2.6,2.4-2.6c22.3,0.1,44.6,0,66.9,0.1
	C713.4,239.4,714.1,239.5,714.8,239.5z"/>
<path class="st0" d="M479,221.6c-4.9,0-9.5,0-14.2,0c0-13.9,0-27.8,0-42c-2.9,0-5.6,0-8.4,0c0-3.7,0-7.1,0-10.7c0.8,0,1.4,0,2.1,0
	c11.5,0,23.1,0,34.6,0c1.6,0,2.3,0.5,2.7,2.1c1.4,5,3,9.9,4.5,14.9c0.1,0.4,0.3,0.8,0.6,1.6c1.7-5.7,3.4-11,4.8-16.3
	c0.5-1.8,1.3-2.4,3-2.3c2.9,0.2,5.7,0,8.9,0c-0.2,0.9-0.4,1.7-0.6,2.4c-3,9.9-6,19.9-8.9,29.8c-0.4,1.3-0.6,2.7-0.6,4.1
	c-0.1,5.4,0,10.9,0,16.5c-4.5,0-8.7,0-13.2,0c0-5.6,0-11,0-16.5c0-1.5-0.2-3.1-0.7-4.5c-1.8-6.2-3.8-12.3-5.5-18.5
	c-0.6-2.2-1.5-3-3.5-2.7c-1.7,0.2-3.5,0-5.5,0C479,193.5,479,207.4,479,221.6z"/>
<path class="st0" d="M385.9,168.1c7.9,0.3,15.7,0.5,23.4,1c2.7,0.2,5.4,1.1,7.1,3.5c1.1,1.6,2.3,3.6,2.3,5.4
	c0.2,11.6,0.3,23.3,0.1,34.9c-0.1,4.7-2.5,7.2-6.7,8.2c-1.3,0.3-2.6,0.5-3.9,0.5c-7,0.1-14.1,0.1-21.1,0.2c-0.4,0-0.8-0.1-1.3-0.2
	C385.9,203.9,385.9,186.3,385.9,168.1z M399.6,212.6c1.1-0.1,2.1-0.3,3-0.3c2-0.1,3-1.3,3-3.4c0-9.5,0.1-19-0.1-28.5
	c0-0.9-0.8-2.2-1.6-2.5c-1.3-0.5-2.9-0.4-4.4-0.5C399.6,189.3,399.6,200.8,399.6,212.6z"/>
<path class="st0" d="M422,169.2c4.5,0,8.9,0,13.6,0c0,0.9,0,1.7,0,2.5c0,12.9,0,25.8,0,38.7c0,2.9,1.1,3.9,3.5,3.2
	c0.7-0.2,1.5-1.2,1.7-2c0.3-1.3,0.2-2.8,0.2-4.2c0-11.9,0-23.7,0-35.6c0-0.8,0-1.6,0-2.6c4.6,0,9,0,13.5,0c0.1,0.4,0.1,0.7,0.1,0.9
	c0,12.7,0.1,25.4-0.1,38.1c-0.1,8.7-3.9,13.1-12,14.5c-4.8,0.8-9.5,0.3-14-2c-4.1-2.1-6.6-5.5-6.6-10.5c-0.1-13.4-0.2-26.8-0.2-40.3
	C421.8,169.7,421.9,169.5,422,169.2z"/>
<path class="st0" d="M287.2,192.2c-4.9,0-9.4,0-14.1,0c0-1.1,0-2.1,0-3.1c0-3.1,0-6.2-0.1-9.3c0-2.1-1-3.1-2.9-3
	c-2.2,0.1-3.1,0.8-3.1,3.1c0,10.4,0,20.8,0,31.2c0,2.1,1,3.1,2.9,3.1c2.3,0,3.3-0.7,3.4-3c0.2-3.5,0-6.9,0-10.6c4.7,0,9.1,0,13.8,0
	c-0.2,5,0.5,10.4-1.8,15.2c-2,4.1-5.7,6.1-9.7,7.1c-4.1,1-8.3,0.9-12.4-0.2c-6.6-1.7-9.8-5.5-10.1-13.1c-0.4-9.9-0.3-19.8-0.1-29.6
	c0.1-4.5,2.6-7.8,6.2-9.7c6.9-3.7,13.9-3.7,20.9-0.3c3.8,1.9,6,5.3,6.4,9.8C286.9,183.8,287,187.9,287.2,192.2z"/>
<path class="st0" d="M293.4,168.6c7,0,13.7,0,20.6,0c2.7,17.7,5.4,35.4,8.2,53.4c-4.1,0-8.1,0-12.1-0.1c-0.3,0-0.8-1-0.9-1.6
	c-0.5-3-0.8-6.1-1.2-9.2c-1-0.1-1.8-0.1-2.8-0.2c-0.6-3.2-1.2-6.5-1.8-10c1-0.1,1.9-0.1,3-0.2c-0.7-6.5-1.3-12.9-2-19.3
	c-0.2,0-0.3,0-0.5,0c-1.6,13.5-3.1,26.9-4.7,40.5c-4.3,0-8.6,0-13,0C288.5,204,291,186.3,293.4,168.6z"/>
<path class="st0" d="M348.5,221.6c0-17.8,0-35.4,0-53.1c4.7,0,9.3,0,14.1,0c0,14.1,0,28.1,0,42.4c2.9,0,5.7,0,8.6,0
	c0,3.7,0,7.1,0,10.7C363.7,221.6,356.2,221.6,348.5,221.6z"/>
<path class="st0" d="M346,221.7c-7.6,0-15.1,0-22.7,0c0-17.7,0-35.3,0-53.1c4.6,0,9.2,0,14,0c0,14.1,0,28.1,0,42.4c3,0,5.7,0,8.7,0
	C346,214.6,346,218,346,221.7z"/>
<path class="st0" d="M375,189.9c0,2,0.1,4,0,6c-0.1,2.4-1.7,3.7-4.2,3.9c-2.6,0.1-4.6-1.2-4.7-3.5c-0.2-4-0.2-8.1,0-12.1
	c0.1-2.2,2-3.4,4.8-3.3c2.5,0.1,4,1.4,4.1,3.6c0,0.2,0,0.4,0,0.7C375.1,186.7,375.1,188.3,375,189.9L375,189.9z M371.1,183.5
	c-0.3,0-0.6,0-0.8,0c0,4.5,0,9.1,0,13.6c0.3,0,0.6,0,0.8,0C371.3,192.6,371.3,188.1,371.1,183.5z"/>
<path class="st0" d="M376.8,181.1c2.1,0,4.2,0,6.4,0c0,1,0,1.8,0,2.8c-0.8,0.1-1.6,0.2-2.5,0.3c0,1.3,0,2.5,0,3.9
	c0.7,0.1,1.4,0.2,2.2,0.3c0,0.7,0,1.5,0,2.4c-0.7,0.1-1.4,0.2-2.2,0.3c0,2.7,0,5.3,0,8.1c-1.4,0-2.5,0-3.9,0
	C376.8,193.3,376.8,187.3,376.8,181.1z"/>
<path class="st0" d="M514.6,213.7c2,0,3.7,2,3.7,4.2c0,2.2-1.9,4.1-3.9,4c-2-0.1-3.6-1.9-3.6-4.1
	C510.9,215.6,512.6,213.7,514.6,213.7z M514.5,221.1c1.6,0.1,3-1.3,3-3.2c0-1.9-1.1-3.4-2.8-3.5c-1.7-0.1-3.2,1.4-3.2,3.3
	C511.6,219.6,512.9,221.1,514.5,221.1z"/>
<path class="st0" d="M515.8,220c-0.4-0.6-0.9-1.2-1.6-2.2c-0.3,1.1-0.4,1.7-0.5,2.2c-0.2,0-0.4,0-0.5,0c0-1.2-0.1-2.5,0.1-3.7
	c0-0.3,0.9-0.9,1.4-0.8c0.5,0.1,1.4,0.7,1.4,1.1C516.1,217.7,515.9,218.8,515.8,220z"/>
</svg>
